{
  "accessors": [
    {
      "bufferView": 1,
      "componentType": 5126,
      "count": 568,
      "max": [8.0, -0.0, 0.5],
      "min": [-8.0, -16.0, -0.5],
      "type": "VEC3"
    },
    {
      "bufferView": 1,
      "byteOffset": 6816,
      "componentType": 5126,
      "count": 568,
      "max": [1.0, 1.0, 1.0],
      "min": [-1.0, -1.0, -1.0],
      "type": "VEC3"
    },
    {
      "bufferView": 0,
      "componentType": 5125,
      "count": 1224,
      "type": "SCALAR"
    },
    {
      "bufferView": 1,
      "byteOffset": 13632,
      "componentType": 5126,
      "count": 370,
      "max": [7.0, -1.0, 0.5],
      "min": [-7.0, -15.0, -0.5],
      "type": "VEC3"
    },
    {
      "bufferView": 1,
      "byteOffset": 18072,
      "componentType": 5126,
      "count": 370,
      "max": [0.0, 0.0, 1.0],
      "min": [0.0, 0.0, -1.0],
      "type": "VEC3"
    },
    {
      "bufferView": 0,
      "byteOffset": 4896,
      "componentType": 5125,
      "count": 1596,
      "type": "SCALAR"
    },
    {
      "bufferView": 1,
      "byteOffset": 22512,
      "componentType": 5126,
      "count": 24,
      "max": [3.0, -5.0, 0.5],
      "min": [0.0, -7.0, -0.5],
      "type": "VEC3"
    },
    {
      "bufferView": 1,
      "byteOffset": 22800,
      "componentType": 5126,
      "count": 24,
      "max": [0.0, 0.0, 1.0],
      "min": [0.0, 0.0, -1.0],
      "type": "VEC3"
    },
    {
      "bufferView": 0,
      "byteOffset": 11280,
      "componentType": 5125,
      "count": 60,
      "type": "SCALAR"
    }
  ],
  "asset": {
    "extras": {
      "author": "Alex_F (https://sketchfab.com/Alex_F)",
      "license": "CC-BY-4.0 (http://creativecommons.org/licenses/by/4.0/)",
      "source": "https://sketchfab.com/3d-models/pixel-art-smiley-face-04b0836fde2744498daf8a68185eab90",
      "title": "Pixel Art (Smiley Face)"
    },
    "generator": "Sketchfab-12.66.0",
    "version": "2.0"
  },
  "bufferViews": [
    {
      "buffer": 0,
      "byteLength": 11520,
      "name": "floatBufferViews",
      "target": 34963
    },
    {
      "buffer": 0,
      "byteLength": 23088,
      "byteOffset": 11520,
      "byteStride": 12,
      "name": "floatBufferViews",
      "target": 34962
    }
  ],
  "buffers": [
    {
      "byteLength": 34608,
      "uri": "scene.bin"
    }
  ],
  "materials": [
    {
      "doubleSided": true,
      "name": "material",
      "pbrMetallicRoughness": {
        "baseColorFactor": [0.0, 0.0, 0.0, 1.0],
        "metallicFactor": 0.0,
        "roughnessFactor": 0.6
      }
    },
    {
      "doubleSided": true,
      "name": "material_1",
      "pbrMetallicRoughness": {
        "baseColorFactor": [1.0, 1.0, 0.0, 1.0],
        "metallicFactor": 0.0,
        "roughnessFactor": 0.6
      }
    },
    {
      "doubleSided": true,
      "name": "material_2",
      "pbrMetallicRoughness": {
        "baseColorFactor": [0.933333, 0.0, 0.0, 1.0],
        "metallicFactor": 0.0,
        "roughnessFactor": 0.6
      }
    }
  ],
  "meshes": [
    {
      "name": "Object_0",
      "primitives": [
        {
          "attributes": {
            "NORMAL": 1,
            "POSITION": 0
          },
          "indices": 2,
          "material": 0,
          "mode": 4
        }
      ]
    },
    {
      "name": "Object_1",
      "primitives": [
        {
          "attributes": {
            "NORMAL": 4,
            "POSITION": 3
          },
          "indices": 5,
          "material": 1,
          "mode": 4
        }
      ]
    },
    {
      "name": "Object_2",
      "primitives": [
        {
          "attributes": {
            "NORMAL": 7,
            "POSITION": 6
          },
          "indices": 8,
          "material": 2,
          "mode": 4
        }
      ]
    }
  ],
  "nodes": [
    {
      "children": [1],
      "matrix": [
        1.0, 0.0, 0.0, 0.0, 0.0, -0.9996568560600281, -0.026195239275694115,
        0.0, 0.0, 0.026195239275694115, -0.9996568560600281, 0.0, 0.0,
        -7.998820304870607, 7.791954040527342, 1.0
      ],
      "name": "Sketchfab_model"
    },
    {
      "children": [2, 3, 4],
      "name": "Smiley Face.obj.cleaner.gles"
    },
    {
      "mesh": 0,
      "name": "Object_2"
    },
    {
      "mesh": 1,
      "name": "Object_3"
    },
    {
      "mesh": 2,
      "name": "Object_4"
    }
  ],
  "scene": 0,
  "scenes": [
    {
      "name": "Sketchfab_Scene",
      "nodes": [0]
    }
  ]
}
