{
  "accessors": [
    {
      "bufferView": 2,
      "componentType": 5126,
      "count": 17486,
      "max": [
        0.12515917420387268,
        0.12647074460983276,
        0.12515920400619507
      ],
      "min": [
        -0.1251591295003891,
        -0.12647074460983276,
        1.4876968101873445e-08
      ],
      "type": "VEC3"
    },
    {
      "bufferView": 2,
      "byteOffset": 209832,
      "componentType": 5126,
      "count": 17486,
      "max": [
        0.9999247789382935,
        0.9989877343177795,
        1.0
      ],
      "min": [
        -0.9999247789382935,
        -0.9989877343177795,
        -0.020264433696866035
      ],
      "type": "VEC3"
    },
    {
      "bufferView": 1,
      "componentType": 5126,
      "count": 17486,
      "max": [
        0.5,
        1.0
      ],
      "min": [
        0.0,
        -1.1920928955078125e-07
      ],
      "type": "VEC2"
    },
    {
      "bufferView": 0,
      "componentType": 5125,
      "count": 97536,
      "type": "SCALAR"
    },
    {
      "bufferView": 2,
      "byteOffset": 419664,
      "componentType": 5126,
      "count": 1009,
      "max": [
        0.035316381603479385,
        -0.05738088861107826,
        0.11055365949869156
      ],
      "min": [
        -0.036846306174993515,
        -0.08344479650259018,
        0.09674306958913803
      ],
      "type": "VEC3"
    },
    {
      "bufferView": 2,
      "byteOffset": 431772,
      "componentType": 5126,
      "count": 1009,
      "max": [
        0.9941266179084778,
        0.9918578267097473,
        0.9999743700027466
      ],
      "min": [
        -0.9865027666091919,
        -0.9938668012619019,
        0.03848448023200035
      ],
      "type": "VEC3"
    },
    {
      "bufferView": 1,
      "byteOffset": 139888,
      "componentType": 5126,
      "count": 1009,
      "max": [
        0.31373223662376404,
        0.6881698369979858
      ],
      "min": [
        0.18681134283542633,
        0.6221263408660889
      ],
      "type": "VEC2"
    },
    {
      "bufferView": 0,
      "byteOffset": 390144,
      "componentType": 5125,
      "count": 5376,
      "type": "SCALAR"
    },
    {
      "bufferView": 2,
      "byteOffset": 443880,
      "componentType": 5126,
      "count": 423,
      "max": [
        0.012975241057574749,
        0.022383105009794235,
        0.008109238930046558
      ],
      "min": [
        -0.01297523733228445,
        -0.022383105009794235,
        -0.008109236136078835
      ],
      "type": "VEC3"
    },
    {
      "bufferView": 2,
      "byteOffset": 448956,
      "componentType": 5126,
      "count": 423,
      "max": [
        1.0,
        1.0,
        1.0
      ],
      "min": [
        -1.0,
        -1.0,
        -1.0
      ],
      "type": "VEC3"
    },
    {
      "bufferView": 1,
      "byteOffset": 147960,
      "componentType": 5126,
      "count": 423,
      "max": [
        1.000000238418579,
        1.0
      ],
      "min": [
        0.0,
        0.0
      ],
      "type": "VEC2"
    },
    {
      "bufferView": 0,
      "byteOffset": 411648,
      "componentType": 5125,
      "count": 2160,
      "type": "SCALAR"
    },
    {
      "bufferView": 2,
      "byteOffset": 454032,
      "componentType": 5126,
      "count": 278,
      "max": [
        0.030373886227607727,
        -0.0004329552175477147,
        0.0007395051070488989
      ],
      "min": [
        -0.030542613938450813,
        -0.009204489178955555,
        -0.01189306192100048
      ],
      "type": "VEC3"
    },
    {
      "bufferView": 2,
      "byteOffset": 457368,
      "componentType": 5126,
      "count": 278,
      "max": [
        0.9991607666015625,
        0.9999666213989258,
        0.9999841451644897
      ],
      "min": [
        -0.9930691123008728,
        -0.9992169141769409,
        -0.9999970197677612
      ],
      "type": "VEC3"
    },
    {
      "bufferView": 1,
      "byteOffset": 151344,
      "componentType": 5126,
      "count": 278,
      "max": [
        1.0000001192092896,
        1.0
      ],
      "min": [
        0.0,
        -1.1920928955078125e-07
      ],
      "type": "VEC2"
    },
    {
      "bufferView": 0,
      "byteOffset": 420288,
      "componentType": 5125,
      "count": 1344,
      "type": "SCALAR"
    },
    {
      "bufferView": 2,
      "byteOffset": 460704,
      "componentType": 5126,
      "count": 292,
      "max": [
        0.003998907282948494,
        0.02680957317352295,
        0.005363584496080875
      ],
      "min": [
        -0.013202443718910217,
        -0.028323085978627205,
        -0.006634731311351061
      ],
      "type": "VEC3"
    },
    {
      "bufferView": 2,
      "byteOffset": 464208,
      "componentType": 5126,
      "count": 292,
      "max": [
        0.9999971389770508,
        0.9895429015159607,
        0.9999865889549255
      ],
      "min": [
        -0.9999477863311768,
        -0.9996480345726013,
        -0.9999669194221497
      ],
      "type": "VEC3"
    },
    {
      "bufferView": 1,
      "byteOffset": 153568,
      "componentType": 5126,
      "count": 292,
      "max": [
        0.8750001192092896,
        1.0
      ],
      "min": [
        0.1250000149011612,
        -1.1920928955078125e-07
      ],
      "type": "VEC2"
    },
    {
      "bufferView": 0,
      "byteOffset": 425664,
      "componentType": 5125,
      "count": 1344,
      "type": "SCALAR"
    },
    {
      "bufferView": 2,
      "byteOffset": 467712,
      "componentType": 5126,
      "count": 278,
      "max": [
        0.03225313872098923,
        -0.0003619763592723757,
        0.0007048132829368114
      ],
      "min": [
        -0.032306164503097534,
        -0.009736179374158382,
        -0.011422425508499146
      ],
      "type": "VEC3"
    },
    {
      "bufferView": 2,
      "byteOffset": 471048,
      "componentType": 5126,
      "count": 278,
      "max": [
        0.9904590249061584,
        0.9995740652084351,
        0.9972859025001526
      ],
      "min": [
        -0.9906501770019531,
        -0.9993569850921631,
        -0.9916923642158508
      ],
      "type": "VEC3"
    },
    {
      "bufferView": 1,
      "byteOffset": 155904,
      "componentType": 5126,
      "count": 278,
      "max": [
        1.0000001192092896,
        1.0
      ],
      "min": [
        0.0,
        -1.1920928955078125e-07
      ],
      "type": "VEC2"
    },
    {
      "bufferView": 0,
      "byteOffset": 431040,
      "componentType": 5125,
      "count": 1344,
      "type": "SCALAR"
    },
    {
      "bufferView": 2,
      "byteOffset": 474384,
      "componentType": 5126,
      "count": 3353,
      "max": [
        0.25522270798683167,
        0.17450085282325745,
        0.060207393020391464
      ],
      "min": [
        -0.25522270798683167,
        -0.24347609281539917,
        -0.060207393020391464
      ],
      "type": "VEC3"
    },
    {
      "bufferView": 2,
      "byteOffset": 514620,
      "componentType": 5126,
      "count": 3353,
      "max": [
        0.9995179772377014,
        0.9997619986534119,
        1.0
      ],
      "min": [
        -0.9995179772377014,
        -0.9995178580284119,
        -1.0
      ],
      "type": "VEC3"
    },
    {
      "bufferView": 1,
      "byteOffset": 158128,
      "componentType": 5126,
      "count": 3353,
      "max": [
        0.875,
        1.0
      ],
      "min": [
        0.125,
        0.0
      ],
      "type": "VEC2"
    },
    {
      "bufferView": 0,
      "byteOffset": 436416,
      "componentType": 5125,
      "count": 18276,
      "type": "SCALAR"
    }
  ],
  "asset": {
    "extras": {
      "author": "i.deal3d (https://sketchfab.com/i.deal3d)",
      "license": "CC-BY-4.0 (http://creativecommons.org/licenses/by/4.0/)",
      "source": "https://sketchfab.com/3d-models/winking-face-emoji-fd6858bf813042cbb22e19f13ce1012d",
      "title": "Winking face emoji"
    },
    "generator": "Sketchfab-12.68.0",
    "version": "2.0"
  },
  "bufferViews": [
    {
      "buffer": 0,
      "byteLength": 509520,
      "name": "floatBufferViews",
      "target": 34963
    },
    {
      "buffer": 0,
      "byteLength": 184952,
      "byteOffset": 509520,
      "byteStride": 8,
      "name": "floatBufferViews",
      "target": 34962
    },
    {
      "buffer": 0,
      "byteLength": 554856,
      "byteOffset": 694472,
      "byteStride": 12,
      "name": "floatBufferViews",
      "target": 34962
    }
  ],
  "buffers": [
    {
      "byteLength": 1249328,
      "uri": "scene.bin"
    }
  ],
  "materials": [
    {
      "doubleSided": true,
      "name": "Material.009",
      "pbrMetallicRoughness": {
        "baseColorFactor": [
          1.0,
          0.549478,
          0.0,
          1.0
        ],
        "metallicFactor": 0.0
      }
    },
    {
      "doubleSided": true,
      "name": "Material.013",
      "pbrMetallicRoughness": {
        "baseColorFactor": [
          0.0578026,
          0.0213691,
          0.00336024,
          1.0
        ],
        "metallicFactor": 0.0
      }
    },
    {
      "doubleSided": true,
      "name": "Material",
      "pbrMetallicRoughness": {
        "metallicFactor": 0.0
      }
    }
  ],
  "meshes": [
    {
      "name": "Object_0",
      "primitives": [
        {
          "attributes": {
            "NORMAL": 1,
            "POSITION": 0,
            "TEXCOORD_0": 2
          },
          "indices": 3,
          "material": 0,
          "mode": 4
        }
      ]
    },
    {
      "name": "Object_1",
      "primitives": [
        {
          "attributes": {
            "NORMAL": 5,
            "POSITION": 4,
            "TEXCOORD_0": 6
          },
          "indices": 7,
          "material": 1,
          "mode": 4
        }
      ]
    },
    {
      "name": "Object_2",
      "primitives": [
        {
          "attributes": {
            "NORMAL": 9,
            "POSITION": 8,
            "TEXCOORD_0": 10
          },
          "indices": 11,
          "material": 1,
          "mode": 4
        }
      ]
    },
    {
      "name": "Object_3",
      "primitives": [
        {
          "attributes": {
            "NORMAL": 13,
            "POSITION": 12,
            "TEXCOORD_0": 14
          },
          "indices": 15,
          "material": 1,
          "mode": 4
        }
      ]
    },
    {
      "name": "Object_4",
      "primitives": [
        {
          "attributes": {
            "NORMAL": 17,
            "POSITION": 16,
            "TEXCOORD_0": 18
          },
          "indices": 19,
          "material": 1,
          "mode": 4
        }
      ]
    },
    {
      "name": "Object_5",
      "primitives": [
        {
          "attributes": {
            "NORMAL": 21,
            "POSITION": 20,
            "TEXCOORD_0": 22
          },
          "indices": 23,
          "material": 1,
          "mode": 4
        }
      ]
    },
    {
      "name": "Object_6",
      "primitives": [
        {
          "attributes": {
            "NORMAL": 25,
            "POSITION": 24,
            "TEXCOORD_0": 26
          },
          "indices": 27,
          "material": 2,
          "mode": 4
        }
      ]
    }
  ],
  "nodes": [
    {
      "children": [
        1
      ],
      "matrix": [
        0.9999904036521912,
        -0.004378555342555046,
        -5.076278337703342e-17,
        0.0,
        -4.978996314197971e-17,
        2.2228766473604905e-16,
        -1.0,
        0.0,
        0.004378555342555046,
        0.9999904036521912,
        2.220675234841696e-16,
        0.0,
        -0.003016823437064886,
        4.8101730499183956e-05,
        -0.0008916609804145992,
        1.0
      ],
      "name": "Sketchfab_model"
    },
    {
      "children": [
        2
      ],
      "name": "root"
    },
    {
      "children": [
        3,
        6,
        8,
        10,
        12,
        14
      ],
      "matrix": [
        1.0,
        0.0,
        0.0,
        0.0,
        0.0,
        2.220446049250313e-16,
        1.0,
        0.0,
        0.0,
        -1.0,
        2.220446049250313e-16,
        0.0,
        0.0,
        0.0,
        0.0,
        1.0
      ],
      "name": "GLTF_SceneRootNode"
    },
    {
      "children": [
        4,
        5
      ],
      "matrix": [
        1.0,
        0.0,
        0.0,
        0.0,
        0.0,
        1.0,
        0.0,
        0.0,
        0.0,
        0.0,
        1.0,
        0.0,
        0.015758633613586426,
        0.7220251560211182,
        0.13535961508750916,
        1.0
      ],
      "name": "Sphere_58"
    },
    {
      "mesh": 0,
      "name": "Object_4"
    },
    {
      "mesh": 1,
      "name": "Object_5"
    },
    {
      "children": [
        7
      ],
      "matrix": [
        1.0,
        0.0,
        0.0,
        0.0,
        0.0,
        0.999496858630616,
        0.03171796947363631,
        0.0,
        0.0,
        -0.03171796947363631,
        0.999496858630616,
        0.0,
        -0.02311241626739502,
        0.7164252996444702,
        0.25498467683792114,
        1.0
      ],
      "name": "Sphere.002_59"
    },
    {
      "mesh": 2,
      "name": "Object_7"
    },
    {
      "children": [
        9
      ],
      "matrix": [
        0.7642361161611015,
        0.6357606287933336,
        0.10840471221907466,
        0.0,
        -0.20131055547882218,
        0.07546711847676568,
        0.9766159809677608,
        0.0,
        0.6127129988892054,
        -0.7681882171090095,
        0.1856600228565044,
        0.0,
        -0.0471804141998291,
        0.7621243000030518,
        0.23914512991905212,
        1.0
      ],
      "name": "Plane.009_60"
    },
    {
      "mesh": 3,
      "name": "Object_9"
    },
    {
      "children": [
        11
      ],
      "matrix": [
        -0.0032256072241383382,
        -0.9998907388166125,
        -0.014425875599220858,
        0.0,
        0.9780938602890026,
        -0.00015201088035943222,
        -0.20816430375462844,
        0.0,
        0.2081393665864114,
        -0.014781316634889519,
        0.9779874829237574,
        0.0,
        0.0592576265335083,
        0.7060995697975159,
        0.2535422444343567,
        1.0
      ],
      "name": "Cube.004_61"
    },
    {
      "mesh": 4,
      "name": "Object_11"
    },
    {
      "children": [
        13
      ],
      "matrix": [
        0.9117857108527687,
        -0.10552138834194122,
        -0.39687788309138694,
        0.0,
        0.4106643748758245,
        0.23131755708377755,
        0.881956324878189,
        0.0,
        -0.0012604334808219153,
        -0.96713878238192,
        0.2542459181978304,
        0.0,
        0.07458186149597168,
        0.7404584884643555,
        0.25139319896698,
        1.0
      ],
      "name": "Plane.010_62"
    },
    {
      "mesh": 5,
      "name": "Object_13"
    },
    {
      "children": [
        15
      ],
      "matrix": [
        1.0,
        0.0,
        0.0,
        0.0,
        0.0,
        1.0,
        0.0,
        0.0,
        0.0,
        0.0,
        1.0,
        0.0,
        0.00947725772857666,
        0.7235081791877747,
        0.1172807514667511,
        1.0
      ],
      "name": "Cube.016_63"
    },
    {
      "mesh": 6,
      "name": "Object_15"
    }
  ],
  "scene": 0,
  "scenes": [
    {
      "name": "Sketchfab_Scene",
      "nodes": [
        0
      ]
    }
  ]
}
