<?xml version="1.0" encoding="iso-8859-1"?>
<!-- Uploaded to: SVG Repo, www.svgrepo.com, Generator: SVG Repo Mixer Tools -->
<svg height="800px" width="800px" version="1.1" id="Layer_1" xmlns="http://www.w3.org/2000/svg" xmlns:xlink="http://www.w3.org/1999/xlink" 
	 viewBox="0 0 511.998 511.998" xml:space="preserve">
<path style="fill:#F08C46;" d="M107.468,373.321V156.675c0-81.899,66.63-148.529,148.529-148.529s148.529,66.63,148.529,148.529
	v216.645H107.468z"/>
<path style="fill:#FFD782;" d="M315.827,395.769L315.827,395.769l-59.286,56.563l-59.294-56.942l-1.087,0.377
	c-44.62,15.64-76.617,58.126-76.617,108.086l0,0h272.913l0,0C392.455,453.889,360.451,411.407,315.827,395.769z"/>
<path style="fill:#F0BB9A;" d="M288.756,389.868v-59.624h-65.515v59.625c-9.007,0.844-17.716,2.713-25.995,5.521
	c1.268,31.661,27.323,56.942,59.294,56.942c31.844,0,57.826-25.079,59.286-56.563C307.226,392.755,298.154,390.751,288.756,389.868z
	"/>
<g>
	<path style="fill:#D9A382;" d="M223.241,387.866c10.543,2.382,21.504,3.647,32.758,3.647c11.253,0,22.215-1.265,32.757-3.647
		v-57.622h-65.515V387.866z"/>
	<path style="fill:#D9A382;" d="M358.386,188.832c68.333-30.268,68.973,61.677,12.244,71.656L358.386,188.832z"/>
	<path style="fill:#D9A382;" d="M153.611,188.832c-68.333-30.268-68.973,61.677-12.244,71.656L153.611,188.832z"/>
</g>
<path style="fill:#F0BB9A;" d="M215.567,47.98c-44.098,16.409-75.515,58.881-75.515,108.695v86.309
	c0,64.034,51.911,115.945,115.945,115.945l0,0c64.034,0,115.945-51.911,115.945-115.945v-86.309c0-18.675-4.422-36.314-12.265-51.94
	C274.641,94.732,231.236,62.525,215.567,47.98z"/>
<path style="fill:#5B5D6E;" d="M351.257,93.108H160.739c-18.613,0-33.702,15.089-33.702,33.702v99.976
	c0,18.613,15.089,33.702,33.702,33.702h190.518c18.613,0,33.702-15.089,33.702-33.702v-99.975
	C384.958,108.197,369.87,93.108,351.257,93.108z"/>
<path style="fill:#C7CFE2;" d="M335.481,125.693H176.514c-9.33,0-16.893,7.563-16.893,16.893v68.425
	c0,9.33,7.563,16.893,16.893,16.893h158.967c9.33,0,16.893-7.563,16.893-16.893v-68.426
	C352.374,133.256,344.811,125.693,335.481,125.693z"/>
<path style="fill:#2A2A33;" d="M255.999,282.961c-12.786,0-23.151,11.195-23.151,25.004c0,1.724,0.162,3.407,0.469,5.032
	l22.682,5.849l22.682-5.849c0.307-1.625,0.469-3.308,0.469-5.032C279.149,294.157,268.784,282.961,255.999,282.961z"/>
<path style="fill:#FF6465;" d="M255.999,332.97c11.189,0,20.525-8.575,22.682-19.973c-6.864-1.695-14.556-2.646-22.682-2.646
	c-8.125,0-15.817,0.95-22.682,2.646C235.473,324.395,244.808,332.97,255.999,332.97z"/>
<path d="M176.514,236.049H335.48c13.807,0,25.04-11.233,25.04-25.039v-68.426c0-13.806-11.233-25.038-25.039-25.038h-29.17
	c-4.5,0-8.146,3.647-8.146,8.146s3.646,8.146,8.146,8.146h29.17c4.822,0,8.747,3.923,8.747,8.746v68.426
	c0,4.822-3.924,8.747-8.748,8.747H176.514c-4.822,0-8.747-3.924-8.747-8.747v-68.425c0-4.822,3.923-8.747,8.747-8.747h98.021
	c4.5,0,8.146-3.647,8.146-8.146s-3.646-8.146-8.146-8.146h-98.021c-13.806,0-25.039,11.232-25.039,25.039v68.425
	C151.476,224.816,162.707,236.049,176.514,236.049z"/>
<path d="M400.6,503.854c0-52.042-32.985-98.567-82.079-115.771c-0.002,0-0.003,0-0.003,0c-6.99-2.45-14.234-4.26-21.615-5.406
	v-1.209h107.626c4.5,0,8.146-3.647,8.146-8.146V239.32c5.12-9.393,7.523-19.857,6.9-29.657c-0.513-8.071-2.943-15.096-6.9-20.7
	v-32.288c0-46.855-20.795-90.899-57.052-120.84c-3.466-2.864-8.602-2.375-11.469,1.095c-2.865,3.468-2.375,8.603,1.095,11.469
	c18.098,14.945,31.891,33.811,40.566,54.846c-7.544-11.026-20.218-18.28-34.558-18.28h-48.538
	c-45.203-13.446-70.51-32.649-81.609-42.952c-2.256-2.094-5.499-2.738-8.383-1.665c-23.365,8.695-43.929,24.637-58.32,45.096
	c-11.685,1.781-21.791,8.414-28.204,17.769c21.07-50.965,71.309-86.92,129.796-86.92c22.087,0,43.246,5.014,62.891,14.903
	c4.02,2.023,8.917,0.405,10.939-3.614c2.022-4.019,0.405-8.916-3.614-10.938C304.277,5.599,280.652,0,255.999,0
	C169.608,0,99.324,70.284,99.324,156.675v32.287c-3.957,5.604-6.388,12.631-6.9,20.702c-0.622,9.8,1.779,20.264,6.9,29.658v133.999
	c0,4.499,3.647,8.146,8.146,8.146h107.625v1.208c-6.988,1.081-13.845,2.756-20.465,5.001c-0.008,0.002-0.014,0.007-0.022,0.009
	c-0.01,0.003-0.021,0.005-0.031,0.009l-1.112,0.386c-49.088,17.207-82.069,63.732-82.069,115.774c0,4.499,3.647,8.146,8.146,8.146
	h272.913C396.954,512,400.6,508.353,400.6,503.854z M396.382,156.675v20.051c-0.336-0.117-3.278-0.855-3.278-0.946V126.81
	c0-0.119-0.008-0.237-0.009-0.355C395.258,136.28,396.382,146.402,396.382,156.675z M392.36,234.607
	c0.008-0.041,0.014-0.081,0.022-0.122c0.483-2.534,0.722-5.12,0.722-7.701v-33.798c6.674,3.306,9.758,10.602,10.209,17.709
	c0.606,9.536-2.535,18.497-8.222,26.077c-1.478,1.881-3.104,3.634-4.862,5.226C391.157,239.631,391.875,237.161,392.36,234.607z
	 M378.153,267.098c4.32-1.23,8.516-2.962,12.441-5.145c1.7-0.945,3.35-1.979,4.94-3.099c0.112-0.078,0.848-0.495,0.848-0.609
	v106.931h-99.48v-5.018c15.76-5.498,30.372-14.171,42.927-25.684c19.6-17.972,32.771-41.498,37.873-67.244
	C377.854,267.187,378.003,267.14,378.153,267.098z M213.906,57.41c8.748,7.505,22.822,17.742,43.286,27.553h-81.65
	C186.141,73.113,199.316,63.621,213.906,57.41z M135.183,182.798V126.81c0-13.649,10.757-24.835,24.239-25.522
	c0.437-0.022,0.874-0.034,1.316-0.034c0,0,140.785,0,140.806,0h49.713c14.092,0,25.555,11.464,25.555,25.556v55.988
	c0,8.412,0,16.825,0,25.237c0,12.325,2.177,26.968-7.346,36.644c-9.622,9.779-24.442,7.661-36.867,7.661c-19.72,0-39.439,0-59.159,0
	c-22.528,0-45.054,0-67.582,0c-14.12,0-28.24,0-42.359,0c-0.921,0-1.842,0-2.762,0c-10.958,0-21.09-7.506-24.377-17.939
	c-2.904-9.217-1.178-21.293-1.178-30.884C135.183,196.611,135.183,189.705,135.183,182.798z M115.616,156.675
	c0-10.372,1.14-20.481,3.286-30.219c-0.001,0.118-0.009,0.235-0.009,0.353v48.971c-1.1,0.269-2.205,0.575-3.277,0.945V156.675z
	 M113.909,232.368c-3.808-6.516-5.709-14.099-5.228-21.672c0.447-7.051,3.59-14.43,10.21-17.711c0,8.529-0.682,17.046-0.618,25.576
	c0.032,4.237,0.223,8.484,0.809,12.684c0.352,2.521,0.756,9.005,2.685,10.753C118.688,239.21,116.007,235.958,113.909,232.368z
	 M180.021,341.093c10.753,8.339,22.558,14.738,35.072,19.105v4.978h-99.479v-106.93c3.958,2.903,8.312,5.264,12.97,7.077
	c1.723,0.671,3.481,1.271,5.26,1.776c0.15,0.043,0.298,0.09,0.449,0.131c3.494,17.583,10.786,34.272,21.428,48.85
	c2.652,3.634,7.749,4.429,11.382,1.777c3.634-2.652,4.429-7.749,1.777-11.382c-8.542-11.703-14.603-24.97-17.868-38.97
	c0.034,0.146,1.805,0.358,1.98,0.391c2.559,0.472,5.142,0.739,7.745,0.739h190.518c3.243,0,6.573-0.379,9.731-1.131
	c-4.887,21.008-16.018,40.153-32.169,54.962c-17.806,16.327-41.11,26.33-65.204,28.042c-2.534,0.18-5.077,0.277-7.617,0.277
	c-23.829,0-47.163-7.961-65.99-22.565c-3.555-2.758-8.672-2.11-11.429,1.445S176.467,338.335,180.021,341.093z M224.001,397.979
	c4.186-0.392,7.386-3.906,7.386-8.11v-25.227c0.014,1.909,21.031,2.396,23.63,2.412c0.328,0.002,0.653,0.02,0.981,0.02
	c8.323,0,16.466-1.017,24.649-2.436c-0.166,2.865-0.037,5.799-0.037,8.682v16.547c0,4.203,3.199,7.717,7.385,8.11
	c6.466,0.608,12.842,1.798,19.029,3.547c-1.506,9.027-5.476,17.587-11.39,24.572c-9.657,11.404-24.152,18.09-39.091,18.09
	c-19.072,0-36.946-10.894-45.628-27.868c-0.61-1.194-6.043-14.779-4.9-15.089C211.864,399.642,217.89,398.553,224.001,397.979z
	 M128,495.708c2.977-38.796,27.038-73,62.457-88.905c4.441,21.552,19.867,40.34,40.291,48.628
	c8.142,3.303,17.007,5.048,25.792,5.048c22.879,0,45.157-12.35,57.292-31.745c4.112-6.572,7.074-13.892,8.697-21.472
	c34.884,16.104,58.518,50.023,61.467,88.445H128z"/>
<path d="M225.313,314.516c2.917,15.413,15.821,26.6,30.684,26.6c14.862,0,27.766-11.185,30.684-26.597
	c0-0.001,0.001-0.003,0.001-0.005c0.405-2.142,0.611-4.345,0.611-6.547c0-18.279-14.039-33.15-31.296-33.15
	s-31.297,14.871-31.297,33.15c0,2.198,0.205,4.401,0.61,6.544C225.312,314.512,225.313,314.514,225.313,314.516z M255.999,324.824
	c-4.373,0-8.41-2.162-11.193-5.653c0.083-0.01,0.163-0.023,0.245-0.033c0.553-0.066,1.113-0.122,1.674-0.177
	c0.327-0.033,0.652-0.069,0.981-0.099c0.719-0.064,1.443-0.115,2.171-0.162c0.174-0.012,0.345-0.027,0.52-0.037
	c3.709-0.218,7.493-0.218,11.202,0c0.176,0.011,0.349,0.026,0.523,0.038c0.726,0.047,1.449,0.098,2.167,0.161
	c0.328,0.029,0.652,0.066,0.978,0.099c0.562,0.055,1.124,0.112,1.679,0.178c0.081,0.01,0.162,0.023,0.243,0.033
	C264.408,322.661,260.371,324.824,255.999,324.824z M255.999,291.108c6.784,0,12.532,5.085,14.38,12.041
	c-0.249-0.034-0.502-0.056-0.751-0.088c-0.669-0.085-1.34-0.163-2.015-0.236c-0.449-0.048-0.897-0.095-1.348-0.137
	c-0.694-0.065-1.392-0.121-2.093-0.173c-0.432-0.033-0.865-0.067-1.299-0.093c-0.766-0.047-1.537-0.081-2.308-0.113
	c-0.371-0.015-0.741-0.036-1.114-0.048c-1.146-0.035-2.296-0.055-3.453-0.055c-1.158,0-2.308,0.021-3.453,0.055
	c-0.375,0.012-0.745,0.033-1.119,0.048c-0.769,0.031-1.538,0.066-2.302,0.113c-0.438,0.027-0.872,0.062-1.308,0.093
	c-0.698,0.052-1.395,0.108-2.088,0.173c-0.45,0.042-0.898,0.09-1.346,0.137c-0.677,0.072-1.351,0.151-2.022,0.237
	c-0.248,0.031-0.499,0.053-0.745,0.087C243.466,296.193,249.214,291.108,255.999,291.108z"/>
</svg>